<?xml version="1.0" standalone="no"?>
 <!DOCTYPE svg PUBLIC "-//W3C//DTD SVG 1.1//EN" 
 "http://www.w3.org/Graphics/SVG/1.1/DTD/svg11.dtd"> 
<svg xmlns="http://www.w3.org/2000/svg" version="1.1" 
    width="8.00354cm" height="8.50392cm" viewBox="0 0 31510 33480 ">
<title>SVG Picture created as openhandheld-mx-brd.svg date 2020/03/08 18:54:41 </title>
  <desc>Picture generated by PCBNEW </desc>
<g style="fill:#000000; fill-opacity:1;stroke:#000000; stroke-opacity:1;
stroke-linecap:round; stroke-linejoin:round; "
 transform="translate(0 0) scale(1 1)">
</g>
<g style="fill:#000000; fill-opacity:0.0; 
stroke:#000000; stroke-width:-0.000393701; stroke-opacity:1; 
stroke-linecap:round; stroke-linejoin:round;">
<g >
</g>
<g >
</g>
<g >
</g>
</g>
<g style="fill:#FFFFFF; fill-opacity:0.0; 
stroke:#FFFFFF; stroke-width:-0.000393701; stroke-opacity:1; 
stroke-linecap:round; stroke-linejoin:round;">
</g>
<g style="fill:#000000; fill-opacity:0.0; 
stroke:#000000; stroke-width:-0.000393701; stroke-opacity:1; 
stroke-linecap:round; stroke-linejoin:round;">
<g >
</g>
<g >
</g>
<g >
</g>
</g>
<g style="fill:#FFFFFF; fill-opacity:0.0; 
stroke:#FFFFFF; stroke-width:-0.000393701; stroke-opacity:1; 
stroke-linecap:round; stroke-linejoin:round;">
</g>
<g style="fill:#000000; fill-opacity:0.0; 
stroke:#000000; stroke-width:-0.000393701; stroke-opacity:1; 
stroke-linecap:round; stroke-linejoin:round;">
</g>
<g style="fill:#000000; fill-opacity:0.0; 
stroke:#000000; stroke-width:19.685; stroke-opacity:1; 
stroke-linecap:round; stroke-linejoin:round;">
<path d="M2765 17726
L28750 17726
" />
<circle cx="1978.35" cy="19694.9" r="433.071" /> 
<circle cx="7883.86" cy="31899.6" r="433.071" /> 
<path d="M9 20482
L9 30718
" />
<circle cx="29931.1" cy="31899.6" r="393.701" /> 
<path d="M2765 33474
L28750 33474
" />
<circle cx="23631.9" cy="31899.6" r="433.071" /> 
<circle cx="29537.4" cy="19694.9" r="433.071" /> 
<path d="M28750 33474.4 A2755.91 2755.91 0.0 0 0 31505.9 30718.5 " />
<path d="M31505.9 20482.3 A2755.91 2755.91 0.0 0 0 28750 17726.4 " />
<path d="M31505 20482
L31505 30718
" />
<path d="M9.84291 30718.5 A2755.91 2755.91 0.0 0 0 2765.75 33474.4 " />
<path d="M2765.75 17726.4 A2755.91 2755.91 0.0 0 0 9.84291 20482.3 " />
<path d="M994 5521
L2175 4340
" />
<path d="M994 10246
L994 5521
" />
<path d="M2175 11427
L994 10246
" />
<path d="M6899 11427
L2175 11427
" />
<path d="M8080 10246
L6899 11427
" />
<path d="M8080 5521
L8080 10246
" />
<path d="M6899 4340
L8080 5521
" />
<path d="M2175 4340
L6899 4340
" />
<path d="M2765 9
L2962 9
" />
<path d="M22647 9
L8868 9
" />
<path d="M28553 9
L28750 9
" />
<path d="M28159.4 2568.9 A196.85 196.85 0.0 0 0 28356.3 2372.05 " />
<path d="M22844.5 2372.05 A196.85 196.85 0.0 0 0 23041.3 2568.9 " />
<path d="M22844.5 206.693 A196.85 196.85 0.0 0 0 22647.6 9.84291 " />
<path d="M28553.1 9.84291 A196.85 196.85 0.0 0 0 28356.3 206.693 " />
<path d="M3159.45 206.693 A196.85 196.85 0.0 0 0 2962.6 9.84291 " />
<path d="M8868.11 9.84291 A196.85 196.85 0.0 0 0 8671.26 206.693 " />
<path d="M8474.41 2568.9 A196.85 196.85 0.0 0 0 8671.26 2372.05 " />
<path d="M3159.45 2372.05 A196.85 196.85 0.0 0 0 3356.3 2568.9 " />
<path d="M28356 2372
L28356 206
" />
<path d="M23041 2568
L28159 2568
" />
<path d="M22844 206
L22844 2372
" />
<path d="M8671 2372
L8671 206
" />
<path d="M3356 2568
L8474 2568
" />
<path d="M3159 206
L3159 2372
" />
<circle cx="28946.9" cy="6899.61" r="1614.17" /> 
<circle cx="25009.8" cy="8868.11" r="1614.17" /> 
<circle cx="7883.86" cy="14183.1" r="433.071" /> 
<circle cx="1978.35" cy="1978.35" r="433.071" /> 
<circle cx="29537.4" cy="1978.35" r="433.071" /> 
<circle cx="23631.9" cy="14183.1" r="433.071" /> 
<path d="M31505.9 2765.75 A2755.91 2755.91 0.0 0 0 28750 9.84291 " />
<path d="M28750 15757.9 A2755.91 2755.91 0.0 0 0 31505.9 13002 " />
<path d="M31505 2765
L31505 13001
" />
<path d="M9 2765
L9 13001
" />
<path d="M2765 15757
L28750 15757
" />
<circle cx="29931.1" cy="14183.1" r="393.701" /> 
<path d="M2765.75 9.84291 A2755.91 2755.91 0.0 0 0 9.84291 2765.75 " />
<path d="M9.84291 13002 A2755.91 2755.91 0.0 0 0 2765.75 15757.9 " />
<g >
</g>
</g> 
</svg>
