<?xml version="1.0" standalone="no"?>
 <!DOCTYPE svg PUBLIC "-//W3C//DTD SVG 1.1//EN" 
 "http://www.w3.org/Graphics/SVG/1.1/DTD/svg11.dtd"> 
<svg xmlns="http://www.w3.org/2000/svg" version="1.1" 
    width="8.00354cm" height="4.00304cm" viewBox="0 0 31510 15760 ">
<title>SVG Picture created as openhandheld-mx-brd.svg date 2020/03/08 18:34:50 </title>
  <desc>Picture generated by PCBNEW </desc>
<g style="fill:#000000; fill-opacity:1;stroke:#000000; stroke-opacity:1;
stroke-linecap:round; stroke-linejoin:round; "
 transform="translate(0 0) scale(1 1)">
</g>
<g style="fill:#000000; fill-opacity:0.0; 
stroke:#000000; stroke-width:-0.000393701; stroke-opacity:1; 
stroke-linecap:round; stroke-linejoin:round;">
<g >
</g>
<g >
</g>
<g >
</g>
</g>
<g style="fill:#FFFFFF; fill-opacity:0.0; 
stroke:#FFFFFF; stroke-width:-0.000393701; stroke-opacity:1; 
stroke-linecap:round; stroke-linejoin:round;">
</g>
<g style="fill:#000000; fill-opacity:0.0; 
stroke:#000000; stroke-width:-0.000393701; stroke-opacity:1; 
stroke-linecap:round; stroke-linejoin:round;">
<g >
</g>
<g >
</g>
<g >
</g>
</g>
<g style="fill:#FFFFFF; fill-opacity:0.0; 
stroke:#FFFFFF; stroke-width:-0.000393701; stroke-opacity:1; 
stroke-linecap:round; stroke-linejoin:round;">
</g>
<g style="fill:#000000; fill-opacity:0.0; 
stroke:#000000; stroke-width:-0.000393701; stroke-opacity:1; 
stroke-linecap:round; stroke-linejoin:round;">
</g>
<g style="fill:#000000; fill-opacity:0.0; 
stroke:#000000; stroke-width:19.685; stroke-opacity:1; 
stroke-linecap:round; stroke-linejoin:round;">
<path d="M31505 2765
L31505 13001
" />
<circle cx="7883.86" cy="14183.1" r="433.071" /> 
<path d="M2765 15757
L28750 15757
" />
<path d="M9 2765
L9 13001
" />
<path d="M9.84291 13002 A2755.91 2755.91 0.0 0 0 2765.75 15757.9 " />
<circle cx="29931.1" cy="14183.1" r="393.701" /> 
<path d="M31505.9 2765.75 A2755.91 2755.91 0.0 0 0 28750 9.84291 " />
<path d="M2765.75 9.84291 A2755.91 2755.91 0.0 0 0 9.84291 2765.75 " />
<path d="M28750 15757.9 A2755.91 2755.91 0.0 0 0 31505.9 13002 " />
<circle cx="23631.9" cy="14183.1" r="433.071" /> 
<path d="M2765 9
L28750 9
" />
<circle cx="29537.4" cy="1978.35" r="433.071" /> 
<circle cx="1978.35" cy="1978.35" r="433.071" /> 
<g >
</g>
</g> 
</svg>
